<svg width="14" height="14" viewBox="0 0 14 14" fill="none" xmlns="http://www.w3.org/2000/svg">
<path d="M7.38916 0.928528C7.38916 0.591979 7.11633 0.319153 6.77979 0.319153C6.44324 0.319153 6.17041 0.591979 6.17041 0.928528L6.17041 7.92706L3.76969 5.38512C3.5386 5.14044 3.15293 5.12942 2.90825 5.3605C2.66358 5.59159 2.65256 5.97726 2.88364 6.22194L6.33676 9.87819C6.45188 10.0001 6.61213 10.0692 6.77979 10.0692C6.94744 10.0692 7.10769 10.0001 7.22281 9.87819L10.6759 6.22194C10.907 5.97726 10.896 5.59159 10.6513 5.3605C10.4066 5.12942 10.021 5.14044 9.78989 5.38512L7.38916 7.92706L7.38916 0.928528Z" fill="#5E7FD6"/>
<path d="M1.49854 9.05353C1.49854 8.71698 1.22571 8.44415 0.88916 8.44415C0.552612 8.44415 0.279785 8.71698 0.279785 9.05353L0.279785 11.0848C0.279785 12.3188 1.28015 13.3192 2.51416 13.3192L11.0454 13.3192C12.2794 13.3192 13.2798 12.3188 13.2798 11.0848V9.05353C13.2798 8.71698 13.007 8.44415 12.6704 8.44415C12.3339 8.44415 12.061 8.71698 12.061 9.05353V11.0848C12.061 11.6457 11.6063 12.1004 11.0454 12.1004L2.51416 12.1004C1.95325 12.1004 1.49854 11.6457 1.49854 11.0848L1.49854 9.05353Z" fill="#5E7FD6"/>
</svg>
