<svg width="21" height="19" viewBox="0 0 21 19" fill="none" xmlns="http://www.w3.org/2000/svg">
<path d="M16.521 15.7522C16.7649 15.7723 17.0116 15.7826 17.2607 15.7826C18.2939 15.7826 19.2857 15.606 20.2078 15.2812C20.2141 15.2028 20.2172 15.1235 20.2172 15.0435C20.2172 13.4106 18.8936 12.087 17.2607 12.087C16.6422 12.087 16.068 12.2769 15.5934 12.6016M16.521 15.7522C16.521 15.7623 16.521 15.7725 16.521 15.7826C16.521 16.0043 16.5088 16.2232 16.485 16.4386C14.7537 17.432 12.7472 18 10.608 18C8.46876 18 6.46221 17.432 4.73091 16.4386C4.70713 16.2232 4.69493 16.0043 4.69493 15.7826C4.69493 15.7725 4.69496 15.7624 4.69501 15.7523M16.521 15.7522C16.5151 14.5927 16.1755 13.5121 15.5934 12.6016M15.5934 12.6016C14.5429 10.9587 12.7026 9.86957 10.608 9.86957C8.51357 9.86957 6.67349 10.9585 5.62297 12.601M5.62297 12.601C5.14849 12.2767 4.57466 12.087 3.95652 12.087C2.32368 12.087 1 13.4106 1 15.0435C1 15.1235 1.00318 15.2028 1.00942 15.2812C1.9315 15.606 2.92338 15.7826 3.95652 15.7826C4.20521 15.7826 4.4515 15.7724 4.69501 15.7523M5.62297 12.601C5.04055 13.5117 4.70083 14.5925 4.69501 15.7523M13.5645 3.95652C13.5645 5.58936 12.2408 6.91304 10.608 6.91304C8.97513 6.91304 7.65145 5.58936 7.65145 3.95652C7.65145 2.32368 8.97513 1 10.608 1C12.2408 1 13.5645 2.32368 13.5645 3.95652ZM19.4775 6.91304C19.4775 8.13767 18.4848 9.13043 17.2601 9.13043C16.0355 9.13043 15.0428 8.13767 15.0428 6.91304C15.0428 5.68841 16.0355 4.69565 17.2601 4.69565C18.4848 4.69565 19.4775 5.68841 19.4775 6.91304ZM6.17319 6.91304C6.17319 8.13767 5.18043 9.13043 3.9558 9.13043C2.73117 9.13043 1.73841 8.13767 1.73841 6.91304C1.73841 5.68841 2.73117 4.69565 3.9558 4.69565C5.18043 4.69565 6.17319 5.68841 6.17319 6.91304Z" stroke="#81848D" strokeWidth="1.5" strokeLinecap="round" strokeLinejoin="round"/>
</svg>
