<svg width="17" height="17" viewBox="0 0 17 17" fill="none" xmlns="http://www.w3.org/2000/svg">
<path fillRule="evenodd" clipRule="evenodd" d="M6.8023 4.3037C6.43197 4.3037 6.13198 4.0036 6.13198 3.63326C6.13198 3.26294 6.43197 2.96304 6.8023 2.96304H16.3296C16.7 2.96304 17 3.26294 17 3.63326C17 4.0036 16.7 4.3037 16.3296 4.3037H6.8023ZM0.670318 0H4.44437C4.81305 0 5.11469 0.301769 5.11469 0.670434V4.44436C5.11469 4.813 4.81305 5.11479 4.44437 5.11479H0.670318C0.301633 5.11479 0 4.813 0 4.44436V0.670434C0 0.301769 0.301633 0 0.670318 0ZM3.77403 1.34066H1.34065V3.77413H3.77403V1.34066ZM0.670318 5.94259H4.44437C4.81305 5.94259 5.11469 6.24437 5.11469 6.61302V10.387C5.11469 10.7558 4.81305 11.0574 4.44437 11.0574H0.670318C0.301633 11.0574 0 10.7558 0 10.387V6.61302C0 6.24437 0.301633 5.94259 0.670318 5.94259ZM3.77403 7.28347H1.34065V9.71673H3.77403V7.28347ZM0.670318 11.8852H4.44437C4.81305 11.8852 5.11469 12.1868 5.11469 12.5556V16.3295C5.11469 16.6982 4.81305 17 4.44437 17H0.670318C0.301633 17 0 16.6982 0 16.3295V12.5556C0 12.1868 0.301633 11.8852 0.670318 11.8852ZM3.77403 13.2259H1.34065V15.6591H3.77403V13.2259ZM6.8023 14.0369C6.43197 14.0369 6.13198 13.737 6.13198 13.3667C6.13198 12.9962 6.43197 12.6963 6.8023 12.6963H16.3296C16.7 12.6963 17 12.9962 17 13.3667C17 13.737 16.7 14.0369 16.3296 14.0369H6.8023ZM6.8023 16.1872C6.43197 16.1872 6.13198 15.8871 6.13198 15.5168C6.13198 15.1465 6.43197 14.8464 6.8023 14.8464H16.3296C16.7 14.8464 17 15.1465 17 15.5168C17 15.8871 16.7 16.1872 16.3296 16.1872H6.8023ZM6.8023 8.09434C6.43197 8.09434 6.13198 7.79445 6.13198 7.42411C6.13198 7.05379 6.43197 6.75368 6.8023 6.75368H16.3296C16.7 6.75368 17 7.05379 17 7.42411C17 7.79445 16.7 8.09434 16.3296 8.09434H6.8023ZM6.8023 10.2463C6.43197 10.2463 6.13198 9.94453 6.13198 9.57587C6.13198 9.20555 6.43197 8.90564 6.8023 8.90564H16.3296C16.7 8.90564 17 9.20555 17 9.57587C17 9.94453 16.7 10.2463 16.3296 10.2463H6.8023ZM6.8023 2.15194C6.43197 2.15194 6.13198 1.85185 6.13198 1.48151C6.13198 1.11286 6.43197 0.811283 6.8023 0.811283H16.3296C16.7 0.811283 17 1.11286 17 1.48151C17 1.85185 16.7 2.15194 16.3296 2.15194H6.8023Z" fill="#81848D"/>
</svg>
