<svg width="22" height="20" viewBox="0 0 22 20" fill="none" xmlns="http://www.w3.org/2000/svg">
<path fillRule="evenodd" clipRule="evenodd" d="M8.625 15.875C8.625 16.0131 8.73693 16.125 8.875 16.125L19.375 16.125C19.5131 16.125 19.625 16.0131 19.625 15.875L19.625 4.125C19.625 3.98693 19.5131 3.875 19.375 3.875L8.875 3.875C8.73693 3.875 8.625 3.98693 8.625 4.125L8.625 6.875C8.625 7.28921 8.28921 7.625 7.875 7.625C7.46079 7.625 7.125 7.28921 7.125 6.875L7.125 4.125C7.125 3.1585 7.9085 2.375 8.875 2.375L19.375 2.375C20.3415 2.375 21.125 3.1585 21.125 4.125L21.125 15.875C21.125 16.8415 20.3415 17.625 19.375 17.625L8.875 17.625C7.9085 17.625 7.125 16.8415 7.125 15.875L7.125 13.125C7.125 12.7108 7.46079 12.375 7.875 12.375C8.28921 12.375 8.625 12.7108 8.625 13.125L8.625 15.875Z" fill="#81848D"/>
<path fillRule="evenodd" clipRule="evenodd" d="M1.09467 10.5303C0.801777 10.2374 0.801776 9.76256 1.09467 9.46967L4.84467 5.71967C5.13756 5.42678 5.61244 5.42678 5.90533 5.71967C6.19822 6.01256 6.19822 6.48744 5.90533 6.78033L3.43566 9.25L14.125 9.25C14.5392 9.25 14.875 9.58579 14.875 10C14.875 10.4142 14.5392 10.75 14.125 10.75L3.43566 10.75L5.90533 13.2197C6.19822 13.5126 6.19822 13.9874 5.90533 14.2803C5.61244 14.5732 5.13756 14.5732 4.84467 14.2803L1.09467 10.5303Z" fill="#81848D"/>
</svg>
