<svg width="17" height="17" viewBox="0 0 17 17" fill="none" xmlns="http://www.w3.org/2000/svg">
<g clip-path="url(#clip0_1_635)">
<path d="M14.1464 16.3462H2.85352C1.69994 16.3462 0.728516 15.3001 0.728516 14.0577V6.08082C0.728516 4.83851 1.69994 3.79236 2.85352 3.79236H14.1464C15.2999 3.79236 16.2714 4.83851 16.2714 6.08082V14.0577C16.2714 15.3001 15.2999 16.3462 14.1464 16.3462Z
M12.3857 3.79226H4.61426V1.9615C4.61426 1.24227 5.16069 0.653809 5.82854 0.653809H11.1714C11.8393 0.653809 12.3857 1.24227 12.3857 1.9615V3.79226Z
M1.21436 9.02307H16.2715
M4.12842 7.97693V10.5923
M12.8716 7.97693V10.5923" stroke="#81848D" strokeLinecap="round" strokeWidth="1.5" stroke-miterlimit="10"/>
</g>
<defs>
<clipPath id="clip0_1_635">
<rect width="17" height="17" fill="white"/>
</clipPath>
</defs>
</svg>
